<svg width="35" height="35" viewBox="0 0 35 35" fill="none" xmlns="http://www.w3.org/2000/svg">
<path fill-rule="evenodd" clip-rule="evenodd" d="M6.36364 0C4.6759 0 3.05728 0.670453 1.86387 1.86387C0.670453 3.05728 0 4.6759 0 6.36364V28.6364C0 30.3241 0.670453 31.9427 1.86387 33.1361C3.05728 34.3295 4.6759 35 6.36364 35H28.6364C30.3241 35 31.9427 34.3295 33.1361 33.1361C34.3295 31.9427 35 30.3241 35 28.6364V6.36364C35 4.6759 34.3295 3.05728 33.1361 1.86387C31.9427 0.670453 30.3241 0 28.6364 0H6.36364ZM5.56818 17.5C5.56818 15.7914 5.64773 14.1798 5.75432 12.8275C5.82226 11.8545 6.23972 10.9388 6.92973 10.2494C7.61975 9.55994 8.53577 9.14325 9.50886 9.07614C12.1688 8.89732 14.8341 8.81242 17.5 8.82159C20.9316 8.82159 23.5645 8.93932 25.4911 9.07614C26.4642 9.14325 27.3803 9.55994 28.0703 10.2494C28.7603 10.9388 29.1777 11.8545 29.2457 12.8275C29.3507 14.1798 29.4318 15.7914 29.4318 17.5C29.4318 19.2707 29.3459 20.9364 29.2345 22.3173C29.0755 24.2884 27.5736 25.7934 25.6359 25.9286C22.9276 26.1045 20.214 26.1878 17.5 26.1784C14.035 26.1784 11.3114 26.0639 9.36409 25.9286C7.42636 25.7934 5.92455 24.2884 5.76545 22.3173C5.63606 20.7148 5.57026 19.1077 5.56818 17.5ZM14.5345 13.4511L21.2959 17.5L14.5345 21.5505V13.4511Z" fill="black"/>
</svg>
