<svg width="35" height="35" viewBox="0 0 35 35" fill="none" xmlns="http://www.w3.org/2000/svg">
<path fill-rule="evenodd" clip-rule="evenodd" d="M6.36364 0C4.6759 0 3.05728 0.670453 1.86387 1.86387C0.670453 3.05728 0 4.6759 0 6.36364V28.6364C0 30.3241 0.670453 31.9427 1.86387 33.1361C3.05728 34.3295 4.6759 35 6.36364 35H28.6364C30.3241 35 31.9427 34.3295 33.1361 33.1361C34.3295 31.9427 35 30.3241 35 28.6364V6.36364C35 4.6759 34.3295 3.05728 33.1361 1.86387C31.9427 0.670453 30.3241 0 28.6364 0H6.36364ZM13.8123 9.97977C13.8123 8.59905 14.3607 7.27486 15.3368 6.2984C16.313 5.32193 17.637 4.77315 19.0177 4.77273H23.6473C23.9655 4.77273 24.2248 5.03205 24.2248 5.35182V9.97977C24.2248 10.298 23.9655 10.5573 23.6473 10.5573H21.3325C21.1046 10.5573 20.879 10.6022 20.6685 10.6894C20.458 10.7767 20.2668 10.9045 20.1057 11.0657C19.9447 11.2269 19.817 11.4183 19.73 11.6289C19.6429 11.8394 19.5982 12.0651 19.5984 12.293V14.0286H23.6473C23.7351 14.0289 23.8217 14.0492 23.9005 14.0879C23.9793 14.1265 24.0483 14.1826 24.1022 14.2519C24.1562 14.3212 24.1937 14.4018 24.2119 14.4877C24.2301 14.5736 24.2285 14.6625 24.2073 14.7477L23.0507 19.3773C23.0191 19.5022 22.9467 19.6129 22.8449 19.6919C22.7432 19.7709 22.6179 19.8136 22.4891 19.8132H19.5968V29.6482C19.5968 29.8018 19.5358 29.9491 19.4272 30.0577C19.3186 30.1663 19.1713 30.2273 19.0177 30.2273H14.3898C14.2365 30.2269 14.0896 30.1657 13.9813 30.0571C13.8731 29.9485 13.8123 29.8015 13.8123 29.6482V19.8148H10.92C10.7664 19.8148 10.6191 19.7538 10.5105 19.6452C10.4019 19.5366 10.3409 19.3893 10.3409 19.2357V14.6061C10.3409 14.288 10.6002 14.0286 10.92 14.0286H13.8123V9.97977Z" fill="black"/>
</svg>
