<svg width="35" height="35" viewBox="0 0 35 35" fill="none" xmlns="http://www.w3.org/2000/svg">
<path fill-rule="evenodd" clip-rule="evenodd" d="M6.36364 0C4.6759 0 3.05728 0.670453 1.86387 1.86387C0.670453 3.05728 0 4.6759 0 6.36364V28.6364C0 30.3241 0.670453 31.9427 1.86387 33.1361C3.05728 34.3295 4.6759 35 6.36364 35H28.6364C30.3241 35 31.9427 34.3295 33.1361 33.1361C34.3295 31.9427 35 30.3241 35 28.6364V6.36364C35 4.6759 34.3295 3.05728 33.1361 1.86387C31.9427 0.670453 30.3241 0 28.6364 0H6.36364ZM5.56818 12.7273C5.56818 10.8286 6.32244 9.00762 7.66503 7.66503C9.00762 6.32244 10.8286 5.56818 12.7273 5.56818H22.2727C24.1714 5.56818 25.9924 6.32244 27.335 7.66503C28.6776 9.00762 29.4318 10.8286 29.4318 12.7273V22.2727C29.4318 24.1714 28.6776 25.9924 27.335 27.335C25.9924 28.6776 24.1714 29.4318 22.2727 29.4318H12.7273C10.8286 29.4318 9.00762 28.6776 7.66503 27.335C6.32244 25.9924 5.56818 24.1714 5.56818 22.2727V12.7273ZM12.7273 7.15909C11.2505 7.15909 9.83421 7.74574 8.78997 8.78997C7.74574 9.83421 7.15909 11.2505 7.15909 12.7273V22.2727C7.15909 23.7495 7.74574 25.1658 8.78997 26.21C9.83421 27.2543 11.2505 27.8409 12.7273 27.8409H22.2727C23.7495 27.8409 25.1658 27.2543 26.21 26.21C27.2543 25.1658 27.8409 23.7495 27.8409 22.2727V12.7273C27.8409 11.2505 27.2543 9.83421 26.21 8.78997C25.1658 7.74574 23.7495 7.15909 22.2727 7.15909H12.7273ZM25.4545 11.402C25.4545 11.7537 25.3148 12.091 25.0662 12.3397C24.8175 12.5884 24.4802 12.7281 24.1285 12.7281C23.7768 12.7281 23.4396 12.5884 23.1909 12.3397C22.9422 12.091 22.8025 11.7537 22.8025 11.402C22.8025 11.0504 22.9422 10.7131 23.1909 10.4644C23.4396 10.2157 23.7768 10.076 24.1285 10.076C24.4802 10.076 24.8175 10.2157 25.0662 10.4644C25.3148 10.7131 25.4545 11.0504 25.4545 11.402ZM11.402 17.5C11.402 15.8827 12.0445 14.3317 13.1881 13.1881C14.3317 12.0445 15.8827 11.402 17.5 11.402C19.1173 11.402 20.6683 12.0445 21.8119 13.1881C22.9555 14.3317 23.598 15.8827 23.598 17.5C23.598 19.1173 22.9555 20.6683 21.8119 21.8119C20.6683 22.9555 19.1173 23.598 17.5 23.598C15.8827 23.598 14.3317 22.9555 13.1881 21.8119C12.0445 20.6683 11.402 19.1173 11.402 17.5ZM17.5 12.993C16.3047 12.993 15.1583 13.4678 14.313 14.313C13.4678 15.1583 12.993 16.3047 12.993 17.5C12.993 18.6953 13.4678 19.8417 14.313 20.687C15.1583 21.5322 16.3047 22.007 17.5 22.007C18.6953 22.007 19.8417 21.5322 20.687 20.687C21.5322 19.8417 22.007 18.6953 22.007 17.5C22.007 16.3047 21.5322 15.1583 20.687 14.313C19.8417 13.4678 18.6953 12.993 17.5 12.993Z" fill="black"/>
</svg>
