<svg width="35" height="35" viewBox="0 0 35 35" fill="none" xmlns="http://www.w3.org/2000/svg">
<path fill-rule="evenodd" clip-rule="evenodd" d="M6.36364 0C4.6759 0 3.05728 0.670453 1.86387 1.86387C0.670453 3.05728 0 4.6759 0 6.36364V28.6364C0 30.3241 0.670453 31.9427 1.86387 33.1361C3.05728 34.3295 4.6759 35 6.36364 35H28.6364C30.3241 35 31.9427 34.3295 33.1361 33.1361C34.3295 31.9427 35 30.3241 35 28.6364V6.36364C35 4.6759 34.3295 3.05728 33.1361 1.86387C31.9427 0.670453 30.3241 0 28.6364 0H6.36364ZM27.8027 13.397C27.957 19.732 22.8423 32.5595 4.77273 25.5468C7.16864 25.5468 11.0759 24.6702 12.0448 23.7014C10.632 23.4993 7.80341 22.4891 7.80341 20.0645H10.228C10.1861 20.0432 10.1442 20.022 10.1023 20.0009C8.82 19.3645 5.985 17.9566 5.985 14.6093C6.58955 15.2155 7.58227 15.4636 8.40954 15.2155C7.16864 14.1368 4.41159 11.052 6.59114 7.94341C8.40955 9.96386 13.0152 14.0048 16.8939 14.0048C16.2893 12.3868 16.8939 9.15568 19.9245 7.94341C22.9552 6.73114 25.122 7.805 25.9859 9.15568C27.0423 9.07136 27.9905 8.52568 28.6364 8.155C28.778 8.07386 28.9052 8.00068 29.015 7.94341V8.06273C29.0182 8.92977 29.023 10.1245 27.7741 10.9741C28.3818 11.4291 29.015 11.6105 30.2273 10.9741C30.2273 11.9986 29.2711 12.9977 27.8027 13.397Z" fill="black"/>
</svg>
